# xmcd
#
# Track frame offsets:
#	150
#	13359
#	26768
#	42917
#	61489
#	76126
#	91103
#	107012
#	122677
#	139514
#	158214
#	173546
#	191305
#	209291
#	228916
#	248155
#	270182
#	294807
#
# Disc length: 4180 seconds
#
# Revision: 0
# Processed by: cddbd v1.4PL0 Copyright (c) Steve Scherf et al.
# Submitted via: EasyCDDAExtractor 4.5.0.2
#
DISCID=df105212
DTITLE=EDDY MITCHELL - Eddy Lover
DYEAR=1900
DGENRE=Chanson
TTITLE0=Sur la route de Memphis
TTITLE1=La fille du motel
TTITLE2=La derniére séance
TTITLE3=Le chanteur du Dancing
TTITLE4=Un Barman
TTITLE5=Tu peux préparer le café noir
TTITLE6=Couleur menthe à l'eau
TTITLE7=T'a rien qui remplace un amour
TTITLE8=Pauvre Baby doll
TTITLE9=Le cimetiére des éléphants
TTITLE10=Le blues du blanc
TTITLE11=Comme quand j'était môme
TTITLE12=M'man
TTITLE13=Le baby blues
TTITLE14=Under the rainbow
TTITLE15=Rio Grande
TTITLE16=Coeur solitaire
TTITLE17=Te perdre
EXTD=
EXTT0=
EXTT1=
EXTT2=
EXTT3=
EXTT4=
EXTT5=
EXTT6=
EXTT7=
EXTT8=
EXTT9=
EXTT10=
EXTT11=
EXTT12=
EXTT13=
EXTT14=
EXTT15=
EXTT16=
EXTT17=
PLAYORDER=
